<!DOCTYPE svg PUBLIC "-//W3C//DTD SVG 1.1//EN" "http://www.w3.org/Graphics/SVG/1.1/DTD/svg11.dtd">
<!-- Uploaded to: SVG Repo, www.svgrepo.com, Transformed by: SVG Repo Mixer Tools -->
<svg width="800px" height="800px" viewBox="0 0 48 48" id="Layer_2" data-name="Layer 2" xmlns="http://www.w3.org/2000/svg" fill="#000000">
<g id="SVGRepo_bgCarrier" stroke-width="0"/>
<g id="SVGRepo_tracerCarrier" stroke-linecap="round" stroke-linejoin="round" stroke="#CCCCCC" stroke-width="2.592">
<defs>
<style>.cls-1{fill:none;stroke:#D4E7F3;stroke-linecap:round;stroke-linejoin:round;}</style>
</defs>
<path class="cls-1" d="M40.5,5.5H7.5a2,2,0,0,0-2,2v33a2,2,0,0,0,2,2h33a2,2,0,0,0,2-2V7.5A2,2,0,0,0,40.5,5.5Z"/>
<line class="cls-1" x1="10.55" y1="10.5" x2="17.27" y2="37.5"/>
<line class="cls-1" x1="24" y1="10.5" x2="17.27" y2="37.5"/>
<line class="cls-1" x1="24" y1="10.5" x2="30.73" y2="37.5"/>
<line class="cls-1" x1="37.45" y1="10.5" x2="30.73" y2="37.5"/>
</g>
<g id="SVGRepo_iconCarrier">
<defs>
<style>.cls-1{fill:none;stroke:#D4E7F3;stroke-linecap:round;stroke-linejoin:round;}</style>
</defs>
<path class="cls-1" d="M40.5,5.5H7.5a2,2,0,0,0-2,2v33a2,2,0,0,0,2,2h33a2,2,0,0,0,2-2V7.5A2,2,0,0,0,40.5,5.5Z"/>
<line class="cls-1" x1="10.55" y1="10.5" x2="17.27" y2="37.5"/>
<line class="cls-1" x1="24" y1="10.5" x2="17.27" y2="37.5"/>
<line class="cls-1" x1="24" y1="10.5" x2="30.73" y2="37.5"/>
<line class="cls-1" x1="37.45" y1="10.5" x2="30.73" y2="37.5"/>
</g>
</svg>